# xmcd
#
# Track frame offsets:
#	150
#	14576
#	29925
#	47367
#	62588
#	78736
#	95060
#	112474
#	124929
#	141745
#	157550
#	172950
#	190634
#	217459
#	234856
#	253430
#	266937
#	283672
#	297732
#	312392
#	325053
#	344668
#
# Disc length: 4804 seconds
#
# Revision: 0
# Processed by: cddbd v1.5.2PL0 Copyright (c) Steve Scherf et al.
# Submitted via: EZCDAudioConverter 7.0.0.1
#
DISCID=6e12c216
DTITLE=ZELTA ŠLĀGERPARĀDE 7
DYEAR=2012
DGENRE=
TTITLE0=Lauku Muzikanti - Marī Luisa
TTITLE1=Kantoris 04 - Sindij Sindij
TTITLE2=Andris Skuja - Baltas Dienas
TTITLE3=Zaļļi - Orhideju Dārzā
TTITLE4=Staburags - Šeit Mūsu Jūra
TTITLE5=Andris Skuja - Meitene Zeltene
TTITLE6=Kaugurieši - Manas Ilgas
TTITLE7=Lauku Muzikanti - Hei Mazā
TTITLE8=Zeļļi - Tai Naktī
TTITLE9=Leijerkastnieki - Latgale
TTITLE10=Kantoris 04 - Hei Suzī
TTITLE11=Andris Skuja - Mīļais Nesteidzies
TTITLE12=Vecie Draugi - Vijolnieks
TTITLE13=Hardijs Madzulis and Silvija Silava - Romance Par Mīlestību
TTITLE14=Lauku Muzikanti - Dzikstošais Vīns
TTITLE15=Mazā Ģilde - Manas Ilgas Šonakt
TTITLE16=Zeļļi - Jau Kļavas Sārtas Kvēl
TTITLE17=Kokmuižas Muzikanti - Saullēktu Sagaidot
TTITLE18=Lauku Muzikanti - Varbūt Vēl
TTITLE19=Zelteri - Tēva Mājas
TTITLE20=Andris Skuja - Mazā Kaija
TTITLE21=Mazā Ģilde and Šlāgerkoris - Karību Salā
EXTD=
EXTT0=
EXTT1=
EXTT2=
EXTT3=
EXTT4=
EXTT5=
EXTT6=
EXTT7=
EXTT8=
EXTT9=
EXTT10=
EXTT11=
EXTT12=
EXTT13=
EXTT14=
EXTT15=
EXTT16=
EXTT17=
EXTT18=
EXTT19=
EXTT20=
EXTT21=
PLAYORDER=
